<svg width="25" height="25" viewBox="0 0 25 25" fill="none" xmlns="http://www.w3.org/2000/svg">
<path d="M23.1257 5.79217C19.3919 -0.00236991 11.7456 -1.71927 5.83224 1.87549C0.0617799 5.47025 -1.7962 13.3036 1.93762 19.0803L2.24133 19.5453L0.99077 24.231L5.67145 22.9791L6.13594 23.2831C8.15471 24.374 10.3521 25 12.5317 25C14.872 25 17.2124 24.374 19.2311 23.1221C25.0016 19.3664 26.7166 11.694 23.1257 5.7564V5.79217ZM19.8564 17.8462C19.2311 18.7762 18.4451 19.4022 17.3553 19.5631C16.73 19.5631 15.9439 19.8672 12.8354 18.6332C10.1913 17.3813 7.99392 15.3424 6.43965 12.9996C5.51066 11.9086 5.0283 10.4958 4.88538 9.0829C4.88538 7.83099 5.34988 6.74004 6.13594 5.95313C6.43965 5.6491 6.76123 5.48814 7.06493 5.48814H7.851C8.15471 5.48814 8.47628 5.48814 8.63707 6.11409C8.94078 6.901 9.72685 8.77886 9.72685 8.93982C9.88763 9.10078 9.81617 10.299 9.10156 10.9786C8.70853 11.4258 8.63707 11.4436 8.79786 11.7656C9.42314 12.6955 10.2092 13.6434 10.9774 14.4303C11.9064 15.2172 12.8533 15.8432 13.943 16.3082C14.2467 16.4691 14.5683 16.4691 14.7291 16.1472C14.8899 15.8432 15.6581 15.0563 15.9797 14.7344C16.2834 14.4303 16.4442 14.4303 16.7657 14.5734L19.2669 15.8253C19.5706 15.9863 19.8921 16.1293 20.0529 16.2903C20.2137 16.7553 20.2137 17.3813 19.8921 17.8462H19.8564Z" fill="#E45438"/>
</svg>
