<svg width="10" height="15" viewBox="0 0 10 15" fill="none" xmlns="http://www.w3.org/2000/svg">
<path d="M1.65749 5.04806L3.90084 3.41857C4.15267 3.23428 4.45898 3.13965 4.77088 3.14979C5.15131 3.15928 5.51933 3.28706 5.82379 3.51536C6.12824 3.74367 6.35399 4.06116 6.46967 4.42371C6.59986 4.83178 6.71885 5.10756 6.82665 5.25035C7.15227 5.68501 7.57473 6.03779 8.06049 6.28067C8.54626 6.52355 9.08196 6.64986 9.62506 6.64956V8.04946C8.90233 8.05015 8.18844 7.89062 7.53475 7.58235C6.88107 7.27409 6.30384 6.82475 5.84461 6.26668L5.35604 9.0357L6.79865 10.2459L8.35464 14.5212L7.03873 15L5.61153 11.0775L3.23868 9.08609C3.04383 8.92893 2.89469 8.72239 2.80679 8.48799C2.71889 8.2536 2.69545 7.99992 2.73892 7.75338L3.09519 5.73402L2.62133 6.07839L1.13252 8.12786L0 7.30471L1.64559 5.03966L1.65749 5.04806ZM5.77531 2.79981C5.40404 2.79981 5.04797 2.65232 4.78543 2.38979C4.5229 2.12726 4.37541 1.77118 4.37541 1.39991C4.37541 1.02863 4.5229 0.672557 4.78543 0.410023C5.04797 0.14749 5.40404 0 5.77531 0C6.14659 0 6.50266 0.14749 6.7652 0.410023C7.02773 0.672557 7.17522 1.02863 7.17522 1.39991C7.17522 1.77118 7.02773 2.12726 6.7652 2.38979C6.50266 2.65232 6.14659 2.79981 5.77531 2.79981ZM3.69645 12.0259L1.4468 14.7067L0.374475 13.8073L2.45684 11.3252L2.979 9.79935L4.23262 10.8493L3.69645 12.0259Z" fill="#A1A1A1"/>
</svg>
