<svg width="14" height="12" viewBox="0 0 14 12" fill="none" xmlns="http://www.w3.org/2000/svg">
<path d="M1.55556 4.5L2.72222 1.125H11.2778L12.4444 4.5M11.2778 8.25C10.9684 8.25 10.6716 8.13147 10.4528 7.9205C10.234 7.70952 10.1111 7.42337 10.1111 7.125C10.1111 6.82663 10.234 6.54048 10.4528 6.3295C10.6716 6.11853 10.9684 6 11.2778 6C11.5872 6 11.8839 6.11853 12.1027 6.3295C12.3215 6.54048 12.4444 6.82663 12.4444 7.125C12.4444 7.42337 12.3215 7.70952 12.1027 7.9205C11.8839 8.13147 11.5872 8.25 11.2778 8.25ZM2.72222 8.25C2.4128 8.25 2.11606 8.13147 1.89726 7.9205C1.67847 7.70952 1.55556 7.42337 1.55556 7.125C1.55556 6.82663 1.67847 6.54048 1.89726 6.3295C2.11606 6.11853 2.4128 6 2.72222 6C3.03164 6 3.32839 6.11853 3.54718 6.3295C3.76597 6.54048 3.88889 6.82663 3.88889 7.125C3.88889 7.42337 3.76597 7.70952 3.54718 7.9205C3.32839 8.13147 3.03164 8.25 2.72222 8.25ZM12.3822 0.75C12.2267 0.315 11.7911 0 11.2778 0H2.72222C2.20889 0 1.77333 0.315 1.61778 0.75L0 5.25V11.25C0 11.4489 0.0819442 11.6397 0.227806 11.7803C0.373667 11.921 0.571498 12 0.777778 12H1.55556C1.76184 12 1.95967 11.921 2.10553 11.7803C2.25139 11.6397 2.33333 11.4489 2.33333 11.25V10.5H11.6667V11.25C11.6667 11.4489 11.7486 11.6397 11.8945 11.7803C12.0403 11.921 12.2382 12 12.4444 12H13.2222C13.4285 12 13.6263 11.921 13.7722 11.7803C13.9181 11.6397 14 11.4489 14 11.25V5.25L12.3822 0.75Z" fill="#A1A1A1"/>
</svg>
